<svg width="2184" height="2184" viewBox="0 0 2184 2184" fill="none" xmlns="http://www.w3.org/2000/svg">
  <style>
    path {
      fill: black;
    }
    @media (prefers-color-scheme: dark) {
      path {
        fill: white;
      }
    }
  </style>
  <path d="M2152 1071.02H2151.89C2151.28 1004.15 2147.46 851.861 2126.88 694.224C2095.6 454.649 2039.74 304.564 1956.08 235.42C1910.67 197.894 1856.84 183.724 1800.34 194.515C1665.65 220.225 1584.5 438.097 1477.82 822.625C1377.69 475.762 1273.43 212.683 1112.52 192.54V191.303H1072.51V192.54C911.63 212.674 807.393 475.651 707.21 822.653C600.517 438.106 519.368 220.207 384.646 194.534C328.155 183.742 274.314 197.876 228.914 235.402C145.262 304.564 89.3896 454.649 58.1195 694.206C37.5436 851.842 33.7203 1004.13 33.1108 1071H33V1112.98H33.1016C33.7203 1180.04 37.5344 1332.89 58.1011 1490.43C89.3158 1729.52 145.142 1879.43 228.757 1948.55C263.906 1977.63 305.27 1993 348.37 1993C360.548 1992.98 372.697 1991.81 384.655 1989.51C519.331 1963.81 600.471 1746.02 707.183 1361.38C807.319 1708.26 911.575 1971.37 1072.49 1991.49V1992.72H1112.51V1991.49C1273.43 1971.37 1377.68 1708.28 1477.81 1361.4C1584.48 1745.91 1665.62 1963.8 1800.34 1989.51C1812.31 1991.81 1824.46 1992.98 1836.64 1993C1879.73 1993 1921.09 1977.63 1956.25 1948.57C2039.87 1879.43 2095.7 1729.59 2126.9 1490.43C2147.47 1332.89 2151.28 1180.04 2151.9 1112.98H2152V1071V1071.02ZM633.099 1092.02C629.774 1104.44 626.44 1116.91 623.097 1129.42C571.482 1322.46 522.739 1504.8 471.567 1644.11C400.613 1837.32 358.354 1850.13 358.058 1850.22C343.051 1853.09 332.144 1850 319.178 1839.31C294.76 1819.11 234.141 1742.89 198.789 1472.09C176.856 1303.98 174.925 1141.06 174.879 1092.61C174.925 780.206 224.546 423.087 319.354 344.684C332.283 334.003 343.097 330.975 357.947 333.781C358.363 333.892 400.623 346.706 471.539 539.92C522.683 679.168 571.408 861.415 623.208 1055.15L633.099 1092.02ZM2010.12 1092.61C2010.07 1141.06 2008.15 1303.93 1986.2 1472.09C1950.87 1742.89 1890.23 1819.11 1865.81 1839.3C1852.88 1850.01 1842 1853.14 1827.03 1850.24C1826.61 1850.13 1784.33 1837.31 1713.38 1644.11C1662.17 1504.71 1613.38 1322.18 1561.74 1128.99C1558.43 1116.62 1555.13 1104.31 1551.85 1092.06L1561.74 1055.08C1613.38 861.886 1662.17 679.362 1713.38 539.966C1784.33 346.761 1826.59 333.938 1826.9 333.855C1841.88 331.003 1852.7 334.068 1865.61 344.748C1960.45 423.087 2010.07 780.206 2010.12 1092.61ZM940.019 1615.66C883.564 1470.92 830.915 1281.6 779.993 1092.02C830.887 902.56 883.555 713.149 940.019 568.353C995.762 425.459 1055.61 333.117 1092.5 333.108C1129.39 333.098 1189.23 425.422 1244.97 568.353C1301.45 713.14 1354.11 902.532 1405 1092.01C1354.11 1281.48 1301.45 1470.87 1244.97 1615.66C1189.25 1758.58 1129.39 1850.92 1092.51 1850.92C1055.61 1850.92 995.762 1758.58 940.019 1615.66Z" />
</svg>