<svg width="177" height="32" viewBox="0 0 177 32" fill="none" xmlns="http://www.w3.org/2000/svg">
<path d="M26.7429 10.6072C26.3435 7.54575 25.6297 5.62806 24.5619 4.74415C23.9818 4.26465 23.2942 4.08395 22.5726 4.22166C20.8521 4.55005 19.8155 7.33419 18.4528 12.2479C17.1753 7.81556 15.8422 4.45377 13.7868 4.19642V4.18053H13.2758V4.19642C11.2195 4.45377 9.88846 7.81432 8.60886 12.2482C7.24638 7.33451 6.2098 4.55005 4.48965 4.22166C3.76807 4.08395 3.08044 4.26465 2.50062 4.74415C1.43195 5.62806 0.718158 7.54575 0.319666 10.6072C0.0567052 12.6218 0.00810069 14.5678 0 15.4218V15.9583C0.00778913 16.8151 0.0563933 18.768 0.319354 20.7817C0.718158 23.8375 1.43102 25.7524 2.50031 26.6354C2.94928 27.0071 3.47769 27.2033 4.02698 27.2033C4.18226 27.203 4.33717 27.1881 4.48965 27.1588C6.20949 26.8304 7.24576 24.0469 8.60886 19.1322C9.88783 23.5649 11.2195 26.927 13.2758 27.184V27.1999H13.7871V27.184C15.8434 26.927 17.1741 23.5652 18.4531 19.1326C19.8155 24.0459 20.8521 26.8304 22.5729 27.1588C22.7257 27.1882 22.8809 27.2031 23.0365 27.2033C23.5867 27.2033 24.1151 27.0071 24.5632 26.6357C25.6315 25.7524 26.3444 23.8375 26.7441 20.7817C27.0068 18.768 27.0557 16.8151 27.0632 15.9583V15.4218C27.0544 14.5678 27.0055 12.6218 26.7429 10.6072ZM3.65591 6.14059C3.82103 6.00412 3.95937 5.96549 4.1488 6.00132C4.15441 6.00288 4.69404 6.16676 5.60007 8.6353C6.25436 10.4146 6.87593 12.7436 7.53738 15.219C7.57976 15.3769 7.62151 15.5337 7.66357 15.6904C7.62099 15.8489 7.57841 16.0082 7.53583 16.1683C6.87655 18.635 6.25374 20.9664 5.60007 22.7448C4.69404 25.214 4.1541 25.3776 4.15036 25.3788C3.95875 25.4156 3.81917 25.376 3.65372 25.2392C3.34216 24.9813 2.56761 24.0073 2.11584 20.5467C1.83543 18.3941 1.81113 16.3095 1.81051 15.6944C1.81019 11.7033 2.44517 7.14227 3.65591 6.14059ZM25.2524 15.6944C25.2524 16.3085 25.2277 18.3935 24.947 20.5467C24.4956 24.0073 23.721 24.9813 23.4091 25.2392C23.2437 25.376 23.105 25.4156 22.9144 25.3791C22.9091 25.3791 22.3688 25.214 21.4628 22.7448C20.8085 20.963 20.1854 18.6322 19.5258 16.1627L19.3993 15.6901L19.5258 15.2177C20.1854 12.7489 20.8085 10.4171 21.4628 8.6353C22.3688 6.16676 22.9088 6.00288 22.9128 6.00163C23.1041 5.96518 23.2421 6.00443 23.407 6.1409C24.6168 7.14227 25.2515 11.7033 25.2524 15.6944ZM11.5827 22.3816C10.8618 20.5321 10.1891 18.1131 9.53888 15.6904C10.1888 13.2692 10.8615 10.849 11.5827 8.9989C12.295 7.1728 13.0593 5.99291 13.5307 5.99291C14.002 5.99291 14.766 7.1728 15.4779 8.9989C16.1995 10.849 16.8722 13.2689 17.5221 15.6904C16.8722 18.1112 16.1995 20.5315 15.4779 22.3816C14.7663 24.2076 14.0017 25.3866 13.5307 25.3866C13.0593 25.3866 12.295 24.2076 11.5827 22.3816Z" fill="black"/>
<path d="M48.4388 14.0388H36.6747V4.9881H34.1797V26.3845H36.6747V16.2867H48.4388V26.3845H50.9338V4.9881H48.4388V14.0388Z" fill="black"/>
<path d="M64.0442 20.2564C64.0442 21.5296 63.6644 22.587 62.9048 23.4284C62.1453 24.2699 61.1393 24.6907 59.8871 24.6909C58.7577 24.6909 57.8801 24.4035 57.254 23.8288C56.628 23.254 56.3149 22.4533 56.3147 21.4266V11.0858H53.8203V21.488C53.8203 23.131 54.3027 24.4188 55.2675 25.3514C56.2323 26.284 57.5361 26.7514 59.1789 26.7534C61.129 26.7534 62.7304 25.9018 63.9829 24.1986H64.0452V26.3836H66.5398V11.0858H64.0452L64.0442 20.2564Z" fill="black"/>
<path d="M85.7998 10.7159C84.8142 10.7159 83.8801 10.9675 82.9976 11.4705C82.13 11.9584 81.4155 12.6782 80.9341 13.5493H80.8718C80.1738 11.6606 78.7881 10.7161 76.7145 10.7159C75.7723 10.7097 74.8461 10.9599 74.0351 11.4397C73.2237 11.9123 72.5373 12.5724 72.0333 13.3646H71.971V11.0858H69.4766V26.3836H71.971V17.0909C71.971 15.9003 72.3968 14.889 73.2484 14.0572C74.1 13.2253 75.0392 12.8099 76.0662 12.8109C76.887 12.8109 77.5491 13.0933 78.0524 13.658C78.5557 14.2228 78.8072 14.9875 78.807 15.9521V26.3836H81.3014V17.0909C81.3014 15.8795 81.6915 14.8632 82.4716 14.0419C83.2518 13.2206 84.1657 12.81 85.2134 12.81C86.0345 12.81 86.7274 13.0923 87.2922 13.6571C87.8569 14.2219 88.1392 14.9866 88.139 15.9512V26.3836H90.6334V15.8281C90.6334 14.2067 90.192 12.9492 89.3093 12.0557C88.4265 11.1621 87.2567 10.7155 85.7998 10.7159Z" fill="black"/>
<path d="M120.165 12.0404C119.22 11.1578 117.906 10.7163 116.223 10.7159C114.087 10.7159 112.404 11.5372 111.172 13.1798H111.11V11.0857H108.617V26.3836H111.11V17.2139C111.11 15.9205 111.52 14.8632 112.341 14.0419C113.162 13.2206 114.209 12.8099 115.483 12.8099C116.611 12.8099 117.494 13.0923 118.131 13.6571C118.768 14.2219 119.086 15.0174 119.086 16.0437V26.3836H121.58V15.8281C121.581 14.1859 121.109 12.9234 120.165 12.0404Z" fill="black"/>
<path d="M126.846 4.9881H124.352V26.3848H126.846V4.9881Z" fill="black"/>
<path d="M136.159 10.3894C133.839 10.3894 131.976 11.1901 130.57 12.7915C129.163 14.393 128.461 16.3845 128.461 18.7661C128.461 21.1477 129.164 23.1391 130.571 24.7404C131.977 26.3416 133.84 27.1422 136.16 27.1422C138.48 27.1422 140.338 26.3416 141.734 24.7404C143.13 23.1391 143.828 21.1477 143.828 18.7661C143.828 16.3845 143.13 14.393 141.734 12.7915C140.338 11.1901 138.48 10.3894 136.159 10.3894ZM139.947 23.2776C139.064 24.4584 137.801 25.0486 136.159 25.0482C134.517 25.0478 133.249 24.4576 132.356 23.2776C131.462 22.097 131.016 20.5931 131.016 18.7661C131.016 16.9391 131.462 15.4301 132.356 14.2391C133.249 13.0485 134.516 12.4531 136.159 12.4529C137.781 12.4529 139.038 13.0431 139.931 14.2235C140.824 15.4039 141.271 16.9181 141.271 18.7661C141.271 20.5933 140.83 22.0972 139.947 23.2776Z" fill="black"/>
<path d="M153.035 10.3894C150.715 10.3894 148.852 11.1901 147.446 12.7915C146.04 14.393 145.336 16.3845 145.336 18.7661C145.336 21.1477 146.039 23.1391 147.446 24.7404C148.852 26.3416 150.715 27.1422 153.035 27.1422C155.355 27.1422 157.213 26.3416 158.609 24.7404C160.005 23.1391 160.703 21.1477 160.703 18.7661C160.703 16.3845 160.005 14.393 158.609 12.7915C157.213 11.1901 155.355 10.3894 153.035 10.3894ZM156.823 23.2776C155.94 24.4584 154.677 25.0486 153.035 25.0482C151.393 25.0478 150.125 24.4576 149.232 23.2776C148.339 22.097 147.892 20.5931 147.892 18.7661C147.892 16.9391 148.339 15.4301 149.232 14.2391C150.125 13.0485 151.393 12.4531 153.035 12.4529C154.656 12.4529 155.914 13.0431 156.807 14.2235C157.701 15.4039 158.148 16.9181 158.147 18.7661C158.147 20.5933 157.706 22.0972 156.823 23.2776Z" fill="black"/>
<path d="M174.916 12.6529C173.663 11.1645 172.011 10.4202 169.958 10.4202C167.843 10.4202 166.139 11.2926 164.846 13.0374H164.783V10.7897H162.289V31.8232H164.783V24.8326H164.846C166.057 26.3932 167.73 27.1733 169.865 27.1731C172.021 27.1731 173.715 26.4187 174.947 24.9099C176.179 23.4011 176.795 21.3633 176.795 18.7967C176.795 16.1901 176.168 14.1422 174.916 12.6529ZM173.068 23.3546C172.288 24.5047 171.158 25.0795 169.679 25.0791C167.955 25.0791 166.683 24.5042 165.861 23.3546C165.039 22.2049 164.629 20.6959 164.629 18.8275C164.629 16.9997 165.06 15.4958 165.923 14.316C166.785 13.1362 168.048 12.5459 169.711 12.5451C171.168 12.5451 172.287 13.1251 173.067 14.2852C173.848 15.4453 174.238 16.9594 174.238 18.8275C174.238 20.6961 173.848 22.2051 173.068 23.3546Z" fill="black"/>
<path d="M100.277 10.4664C98.244 10.4664 96.6889 10.9592 95.6113 11.9447C94.5337 12.9303 93.9742 14.234 93.9329 15.8558H96.3348C96.4168 13.5153 97.7411 12.3451 100.308 12.3451C101.436 12.3451 102.314 12.5864 102.941 13.0689C103.567 13.5514 103.88 14.2443 103.88 15.1476C103.88 15.476 103.808 15.7634 103.664 16.0097C103.52 16.2561 103.366 16.4511 103.202 16.5949C103.038 16.7388 102.75 16.8671 102.34 16.9796C101.93 17.0922 101.596 17.1744 101.339 17.2261C101.082 17.2778 100.656 17.3446 100.062 17.4264C99.138 17.57 98.3784 17.7085 97.7829 17.8421C97.1476 17.9882 96.5246 18.1838 95.9198 18.4272C95.273 18.6843 94.7648 18.982 94.3953 19.3201C94.0258 19.6583 93.7229 20.0998 93.4867 20.6446C93.2506 21.189 93.1326 21.8306 93.1328 22.5694C93.1328 24.0068 93.6358 25.1052 94.6417 25.8646C95.6477 26.6239 96.9411 27.0037 98.522 27.0039C100.739 27.0039 102.505 26.1627 103.819 24.4803H103.85C103.867 24.5899 103.888 24.6956 103.912 24.7978V26.6983H106.16V15.5172C106.159 12.1502 104.198 10.4666 100.277 10.4664ZM103.911 20.8138C103.911 21.8818 103.49 22.8622 102.648 23.7549C101.806 24.6477 100.615 25.0943 99.0756 25.0947C96.8785 25.0947 95.7801 24.2327 95.7805 22.5087C95.7805 22.0571 95.8626 21.6618 96.0269 21.3229C96.1912 20.9839 96.3863 20.7119 96.6121 20.5069C96.8376 20.3019 97.1764 20.1119 97.6284 19.937C98.0184 19.7812 98.4205 19.6574 98.8307 19.5669C99.1793 19.4948 99.6617 19.3972 100.278 19.274C101.941 18.9662 103.152 18.5761 103.912 18.1038V20.8144L103.911 20.8138Z" fill="black"/>
</svg>
